<svg width="46" height="37" viewBox="0 0 46 37" fill="none" xmlns="http://www.w3.org/2000/svg">
<path d="M41.1048 20.8132C40.7572 20.9034 40.4412 21.114 40.2517 21.3998C39.3827 22.5729 37.9767 23.2798 36.4758 23.3099C35.3699 23.3851 34.343 22.7835 33.9164 21.8059C34.9275 20.9636 35.8596 20.016 36.697 19.0083C37.7713 17.9856 38.3874 16.6319 38.4348 15.188C38.5454 13.5336 37.2341 12.1047 35.4805 11.9844C35.4173 11.9844 35.3383 11.9844 35.2751 11.9844C30.7883 12.0897 28.9556 16.1055 29.0504 19.9559C29.082 20.5575 29.2084 21.1441 29.398 21.7156C28.4659 22.7384 27.8181 23.2197 27.4232 23.2197C25.9223 23.2197 26.3804 20.3469 26.491 18.8429C26.6016 17.3388 27.0282 14.1051 26.6806 13.6689C25.9381 12.962 24.9902 12.4807 23.9632 12.2852C23.2681 12.2852 21.7672 13.3531 20.5191 14.8872C20.5349 14.5112 20.4875 14.1502 20.377 13.7892C19.6344 12.9921 18.6391 12.4356 17.549 12.21C15.7637 13.0071 14.2629 14.2856 13.236 15.8949C13.236 15.1579 13.6151 12.8868 13.236 12.8868C12.0353 12.7665 10.8346 12.9169 9.71286 13.323C9.49168 14.7368 9.42848 16.1656 9.52328 17.5795C9.36529 20.5124 8.87553 23.8363 9.90244 25.6262C10.8346 25.8367 11.8141 25.7014 12.6356 25.2201C12.7778 23.2498 13.1412 21.2794 13.7257 19.3843C14.2155 18.136 15.0844 17.053 16.2061 16.2559C16.5221 16.2559 16.5537 17.2034 16.5063 17.6095C16.3799 19.5648 15.9691 24.7839 16.5063 25.3705C17.0434 25.9571 19.2079 25.3705 19.666 25.2501C19.9188 23.6258 20.061 21.9713 20.0926 20.3319C20.4243 18.7225 21.3091 17.2787 22.6046 16.2108C22.9205 16.2108 22.9995 17.1583 22.9521 17.5644C22.9521 19.5197 22.7626 23.5806 23.2207 24.5432C23.6789 25.3554 24.532 25.8818 25.4957 25.942C26.4436 25.9571 27.3916 25.8367 28.3079 25.6111C29.2084 25.205 29.9509 24.5583 30.4565 23.731C31.7204 25.2953 33.6952 26.2127 35.7648 26.1676C38.6086 26.303 41.168 24.5132 41.8789 21.8811C42.0211 21.1591 41.6735 20.8132 41.1048 20.8132ZM35.0697 14.5413C35.1961 14.5413 35.3699 14.6766 35.4489 14.9474C35.3541 15.7596 35.0697 16.5567 34.6115 17.2486C34.0586 18.1209 33.3792 18.903 32.6051 19.6099C32.3997 18.3014 33.0633 14.3157 35.0697 14.5413Z" fill="#00A1DF"/>
<path d="M5.96891 25.7169C7.00722 25.7169 7.84895 24.9155 7.84895 23.927C7.84895 22.9385 7.00722 22.1372 5.96891 22.1372C4.93059 22.1372 4.08887 22.9385 4.08887 23.927C4.08887 24.9155 4.93059 25.7169 5.96891 25.7169Z" fill="#00A1DF"/>
</svg>
